<svg xmlns="http://www.w3.org/2000/svg" width="256" height="256"><path fill="#1976D2" fill-opacity=".043" fill-rule="evenodd" d="M0 128.004v128.004l128.25-.254 128.25-.254.254-127.75L257.008 0H0zm.485.496c0 70.4.119 99.053.265 63.672s.146-92.98 0-128S.485 58.1.485 128.5"/><path fill="#1976D2" fill-opacity=".185" fill-rule="evenodd" d="M120.701 1.396c-.164.494-4.102 1.255-8.75 1.693C95.199 4.667 82.164 9.29 61.5 20.983 50.054 27.46 29.926 47.395 21.274 60.824 16.915 67.59 11.709 78.061 9.502 84.5c-.942 2.75-2.067 5.9-2.498 7C5.538 95.239 1.66 115.766.25 127.254c-.253 2.065-.119 4.54.298 5.5.876 2.016.808 1.611 1.799 10.746 1.899 17.524 8.658 37.443 17.454 51.441 3.479 5.537 15.942 21.029 19.656 24.432 6.687 6.129 18.75 15.695 23.043 18.273C69.038 241.573 84.593 249 86.28 249c.726 0 1.747.365 2.27.811.88.751 8.245 2.526 21.276 5.126 6.859 1.369 29.781 1.372 37.614.006 16.697-2.913 27.755-6.513 40.56-13.202 21.155-11.052 44.363-34.632 54.383-55.251 5.42-11.155 6.265-13.353 9.601-24.99 3.293-11.484 5.299-32.924 3.961-42.328-3.48-24.448-5.386-30.983-14.294-49.022-4.11-8.322-18.936-27.995-24.845-32.967-1.665-1.4-3.55-3.027-4.19-3.615-4.712-4.324-12.2-9.94-17.655-13.239C185.413 14.554 171.322 8 168.453 8c-.814 0-2.262-.394-3.217-.875-3.057-1.54-15.596-4.142-19.921-4.133-2.302.004-5.452-.479-7-1.075-3.484-1.34-17.207-1.746-17.614-.521M115.5 25.668c-5.001.614-16.801 3.526-20.151 4.972-1.733.748-3.624 1.36-4.203 1.36-2.259 0-17.014 8.446-23.842 13.647-12.006 9.146-20.235 18.224-28.171 31.077-4.573 7.404-10.116 20.132-10.148 23.297-.008.814-.756 3.504-1.662 5.979-2.512 6.86-2.484 35.848.045 46 5.841 23.449 16.807 40.934 36.064 57.5 7.151 6.152 10.95 8.575 20.568 13.118 11.608 5.482 13.008 5.94 27 8.831 24.274 5.015 58.143-2.409 76.417-16.75 8.12-6.373 9.17-7.285 14.601-12.699 11.741-11.703 17.715-20.907 24.992-38.5.866-2.095 3.087-11.278 4.914-20.326 1.312-6.494 1.411-23.108.168-28.058-.5-1.989-1.7-7.216-2.667-11.616-2.159-9.818-10.128-26.935-16.295-35-5.839-7.636-17.038-18.875-24.136-24.223-8.733-6.58-20.071-11.799-35.494-16.337-8.195-2.411-27.479-3.564-38-2.272M112 53.541c-3.025.704-7.075 1.833-9 2.508-3.509 1.231-4.4 1.656-14.108 6.719-6.813 3.554-22.57 19.311-26.124 26.124-5.077 9.734-5.489 10.602-6.695 14.108-3.592 10.441-4.17 14.648-3.776 27.495.382 12.487 1.051 16.869 3.739 24.505 2.602 7.39 8.466 17.61 12.619 21.99 1.83 1.931 3.332 3.796 3.336 4.147.016 1.159 13.422 11.6 18.509 14.416 7.676 4.248 11.324 5.788 19.5 8.23 10.651 3.182 37.582 1.704 45.5-2.497 1.1-.584 4.7-2.318 8-3.853 7.203-3.351 18.273-12.064 23.329-18.361 2.019-2.515 3.9-4.797 4.18-5.072 1.346-1.321 5.862-8.934 7.415-12.5.959-2.2 2.38-5.478 3.159-7.284.78-1.806 1.417-4.304 1.417-5.55s.497-2.763 1.104-3.37c1.394-1.394 1.454-31.305.068-33.944-.535-1.018-1.795-4.552-2.799-7.852s-2.747-7.575-3.873-9.5c-1.125-1.925-2.71-4.846-3.523-6.49-2.243-4.54-19.876-21.727-24.977-24.344-2.475-1.27-6.075-3.112-8-4.093-4.404-2.244-8.99-3.855-16-5.618-6.803-1.712-25.49-1.663-33 .086m9.5 47.628c-6.199 2.088-9.402 3.933-12.9 7.431-3.332 3.332-4.341 5.05-7.459 12.697-3.591 8.805 1.659 24.521 10.158 30.41 11.426 7.918 22.963 8.045 34.253.377 7.628-5.18 13.403-17.708 12.054-26.147-.921-5.756-5.271-14.311-9.007-17.71-7.729-7.032-18.698-9.889-27.099-7.058M.286 128.5c.008 2.75.202 3.756.432 2.236s.223-3.77-.014-5-.425.014-.418 2.764"/><path fill="#1976D2" fill-opacity=".271" fill-rule="evenodd" d="M118.5 53.571c-10.582 1.74-17.486 3.983-25.442 8.267C78.875 69.475 68.597 80.019 61.219 94.5c-7.556 14.831-10.113 29.582-7.696 44.398 1.718 10.529 3.886 17.904 6.791 23.102 1.076 1.925 2.884 5.3 4.018 7.5 2.066 4.009 19.8 22.5 21.578 22.5.521 0 3.566 1.55 6.768 3.445 5.676 3.36 9.59 4.875 19.822 7.676 6.865 1.879 26.396 1.633 33.5-.421 3.025-.875 7.176-2.084 9.225-2.686 6.978-2.05 17.411-8.643 26.353-16.652C184.412 180.823 194 168.797 194 167.78c0-.451 1.047-2.498 2.326-4.55 7.323-11.744 10.277-35.948 6.254-51.23l-2.503-9.5c-1.838-6.972-10.294-19.843-18.135-27.606C176.549 69.555 167.983 63 166.399 63c-.408 0-1.452-.631-2.32-1.402-2.147-1.906-15.23-6.251-22.579-7.499-10.471-1.777-14.796-1.876-23-.528m1.188 47.04c-2.096.758-5.749 2.711-8.118 4.341-4.376 3.01-10.57 11.406-10.57 14.327 0 .881-.45 1.881-1 2.221-1.529.945-1.19 11.043.549 16.36 6.749 20.633 32.135 27.262 48.34 12.621 14.895-13.456 10.851-40.51-7.166-47.944-2.323-.958-5.004-2.146-5.959-2.64-2.51-1.296-11.635-.891-16.076.714"/><path fill="#1976D2" fill-opacity=".234" fill-rule="evenodd" d="M117.5 54.927c-3.85.383-7.983 1.231-9.184 1.884-1.202.654-2.933 1.189-3.849 1.189-.915 0-5.532 1.913-10.259 4.25-7.035 3.478-10.33 5.982-18.152 13.786-7.806 7.79-10.323 11.087-13.741 18-2.302 4.655-4.413 9.589-4.691 10.964s-.956 4.3-1.508 6.5c-2.13 8.504-3.066 18.186-2.088 21.598.535 1.864.972 5.131.972 7.261 0 6.764 6.117 22.418 12.363 31.641 3.883 5.734 11.851 13.712 17.637 17.661 7.053 4.812 16.059 9.339 18.582 9.339 1.265 0 2.544.396 2.843.879.945 1.529 19.534 4.378 24.944 3.822 8.5-.872 18.071-2.757 19.081-3.759.522-.518 1.922-.942 3.109-.942 4.534 0 19.717-9.34 27.514-16.926 5.112-4.973 12.927-15.648 12.927-17.656 0-.688.338-1.401.75-1.585 1.262-.561 4.25-6.874 4.25-8.98 0-1.091.502-2.922 1.116-4.069 2.656-4.963 3.927-21.28 2.476-31.784-2.006-14.515-10.974-32.565-21.116-42.497-7.094-6.948-24.323-17.487-28.604-17.499-.895-.002-3.145-.625-5-1.383-4.149-1.697-20.927-2.632-30.372-1.694m-1 46.122c-6.297 3.229-13.5 9.447-13.5 11.654 0 .713-.34 1.297-.755 1.297-1.42 0-3.509 7.493-3.957 14.197-.381 5.693-.049 7.585 2.213 12.626 3.031 6.754 7.809 11.792 14.887 15.698 4.269 2.356 5.977 2.692 13.5 2.657 7.372-.033 9.332-.424 13.612-2.709 5.26-2.809 13.387-10.918 13.498-13.469.036-.825.726-2.374 1.534-3.441 1.016-1.344 1.468-4.489 1.468-10.223 0-6.821-.454-9.239-2.572-13.714-4.847-10.237-15.101-16.844-26.928-17.35-6.178-.264-7.705.062-13 2.777"/></svg>